<svg width="19" height="16" viewBox="0 0 19 16" fill="none" xmlns="http://www.w3.org/2000/svg">
<path d="M1.414 6.66305L0.707 7.37005L0 6.66305L0.707 5.95605L1.414 6.66305ZM18.414 14.6631C18.414 14.9283 18.3086 15.1826 18.1211 15.3702C17.9336 15.5577 17.6792 15.6631 17.414 15.6631C17.1488 15.6631 16.8944 15.5577 16.7069 15.3702C16.5194 15.1826 16.414 14.9283 16.414 14.6631H18.414ZM5.707 12.3701L0.707 7.37005L2.121 5.95605L7.121 10.9561L5.707 12.3701ZM0.707 5.95605L5.707 0.956055L7.121 2.37005L2.121 7.37005L0.707 5.95605ZM1.414 5.66305H11.414V7.66305H1.414V5.66305ZM18.414 12.6631V14.6631H16.414V12.6631H18.414ZM11.414 5.66305C13.2705 5.66305 15.051 6.40055 16.3637 7.71331C17.6765 9.02606 18.414 10.8065 18.414 12.6631H16.414C16.414 11.337 15.8872 10.0652 14.9495 9.12752C14.0119 8.18984 12.7401 7.66305 11.414 7.66305V5.66305Z" fill="black"/>
</svg>
