<?xml version="1.0" encoding="utf-8"?>
<!-- Generator: Adobe Illustrator 28.3.0, SVG Export Plug-In . SVG Version: 6.00 Build 0)  -->
<svg version="1.1" id="Capa_1" xmlns="http://www.w3.org/2000/svg" xmlns:xlink="http://www.w3.org/1999/xlink" x="0px" y="0px"
	 viewBox="0 0 19.8 19.8" style="enable-background:new 0 0 19.8 19.8;" xml:space="preserve">
<style type="text/css">
	.st0{fill:#05AF65;}
</style>
<path class="st0" d="M14.6,12.6c-0.9,0-1.8,0.4-2.4,1l-3.8-2.5c0.1-0.4,0.2-0.8,0.2-1.2c0-0.4-0.1-0.8-0.2-1.2l3.8-2.5
	c0.6,0.6,1.5,1,2.4,1c1.9,0,3.4-1.5,3.4-3.4s-1.5-3.4-3.4-3.4S11.2,2,11.2,3.9c0,0.4,0.1,0.8,0.2,1.2L7.6,7.5c-0.6-0.6-1.5-1-2.4-1
	C3.4,6.5,1.8,8,1.8,9.9s1.5,3.4,3.4,3.4c0.9,0,1.8-0.4,2.4-1l3.8,2.5c-0.1,0.4-0.2,0.8-0.2,1.2c0,1.9,1.5,3.4,3.4,3.4
	s3.4-1.5,3.4-3.4S16.4,12.6,14.6,12.6z M14.6,1.9c1.1,0,2,0.9,2,2s-0.9,2-2,2s-2-0.9-2-2S13.5,1.9,14.6,1.9z M5.2,11.9
	c-1.1,0-2-0.9-2-2c0-1.1,0.9-2,2-2s2,0.9,2,2C7.2,11,6.3,11.9,5.2,11.9z M14.6,17.9c-1.1,0-2-0.9-2-2s0.9-2,2-2s2,0.9,2,2
	S15.7,17.9,14.6,17.9z"/>
</svg>
